<svg xmlns="http://www.w3.org/2000/svg" xmlns:xlink="http://www.w3.org/1999/xlink" xmlns:inkscape="http://www.inkscape.org/namespaces/inkscape" version="1.1" width="58" height="58" viewBox="0 0 58 58">
<defs>
<clipPath id="clip_0">
<path transform="matrix(1,0,0,-1,0,58)" d="M0 0H58V58H0Z"/>
</clipPath>
</defs>
<g inkscape:groupmode="layer" inkscape:label="Layer 1">
<g clip-path="url(#clip_0)">
<path transform="matrix(1,0,0,-1,41.0264,48.1357)" d="M0 0H-23.889C-28.42 0-32.094 3.674-32.094 8.205V32.094C-32.094 36.625-28.42 40.299-23.889 40.299H0C4.532 40.299 8.205 36.625 8.205 32.094V8.205C8.205 3.674 4.532 0 0 0" fill="#0285ff"/>
<path transform="matrix(1,0,0,-1,18.8564,36.547899)" d="M0 0C.585 .591 1.171 1.179 1.752 1.771 2.102 2.129 2.186 2.599 1.992 3.03 1.944 3.138 1.885 3.229 1.816 3.309 1.812 3.313 1.809 3.318 1.805 3.322 1.74 3.396 1.665 3.455 1.584 3.506H1.583C1.549 3.526 1.51 3.542 1.472 3.559 1.467 3.561 1.462 3.563 1.458 3.564 1.415 3.585 1.377 3.608 1.332 3.624 1.315 3.63 1.301 3.628 1.285 3.633 1.249 3.643 1.21 3.646 1.173 3.652 1.124 3.662 1.078 3.663 1.03 3.667 .999 3.669 .966 3.677 .936 3.676 .92 3.676 .907 3.681 .891 3.68 .744 3.676 .619 3.634 .503 3.578 .499 3.575 .494 3.573 .49 3.57 .431 3.543 .375 3.51 .321 3.472 .313 3.467 .306 3.46 .298 3.454 .248 3.418 .2 3.38 .153 3.338 .099 3.289 .045 3.237-.007 3.186-1.623 1.554-3.239-.077-4.856-1.708-5.587-2.44-6.321-3.171-7.048-3.908-7.065-3.926-7.077-3.947-7.093-3.967-7.516-4.393-7.937-4.818-8.36-5.244-8.929-5.818-9.501-6.392-10.066-6.97-10.683-7.603-10.485-8.526-9.669-8.854-9.638-8.866-9.61-8.889-9.581-8.905H-9.051C-8.824-8.751-8.564-8.629-8.375-8.438-6.797-6.854-5.225-5.267-3.651-3.68-2.435-2.452-1.216-1.228 0 0" fill="#ffffff"/>
<path transform="matrix(1,0,0,-1,20.3823,40.9121)" d="M0 0C.03 .029 .058 .058 .088 .088 1.113 1.11 2.138 2.135 3.162 3.157 3.401 3.396 3.525 3.67 3.522 3.972 3.522 4.006 3.516 4.041 3.513 4.074 3.509 4.11 3.5 4.144 3.494 4.179 3.484 4.229 3.483 4.274 3.467 4.326 3.441 4.408 3.404 4.482 3.362 4.552 3.356 4.562 3.354 4.571 3.348 4.582 3.316 4.633 3.277 4.675 3.239 4.719 3.218 4.742 3.2 4.771 3.177 4.792 3.139 4.828 3.097 4.857 3.055 4.889 3.025 4.909 2.996 4.933 2.965 4.949 2.923 4.975 2.88 4.992 2.836 5.011 2.798 5.025 2.76 5.041 2.721 5.052 2.679 5.063 2.636 5.072 2.592 5.08 2.547 5.087 2.502 5.091 2.457 5.093 2.416 5.095 2.375 5.095 2.334 5.092 2.283 5.089 2.232 5.078 2.181 5.067 2.145 5.061 2.107 5.055 2.071 5.043 2.013 5.023 1.958 4.998 1.901 4.97 1.873 4.955 1.843 4.944 1.815 4.928 1.732 4.878 1.652 4.817 1.578 4.744 .414 3.59-.743 2.429-1.902 1.271-3.124 .051-4.006-.842-5.192-2.031-5.361-2.2-5.531-2.369-5.7-2.538-5.999-2.84-6.078-3.218-5.964-3.62-5.73-4.446-4.716-4.703-4.09-4.094-3.463-3.481-2.85-2.857-2.23-2.239-1.501-1.514-.771-.787-.044-.059-.026-.04-.017-.02 0 0" fill="#ffffff"/>
<path transform="matrix(1,0,0,-1,10.3833,39.0957)" d="M0 0C.626 .61 1.241 1.233 1.86 1.853 2.589 2.58 3.319 3.306 4.046 4.034 4.4 4.39 4.498 4.859 4.316 5.291 4.138 5.713 3.74 5.971 3.271 5.969 2.986 5.975 2.737 5.88 2.534 5.687 2.527 5.681 2.519 5.676 2.512 5.669 1.136 4.3-.24 2.93-1.61 1.554-1.909 1.254-1.988 .876-1.874 .473-1.64-.354-.626-.61 0 0" fill="#ffffff"/>
<path transform="matrix(1,0,0,-1,44.3062,15.620098)" d="M0 0V0C-.02 .087-.035 .15-.035 .15-.088 .31-.152 .465-.222 .616-.242 .659-.264 .7-.285 .742-.341 .853-.401 .962-.466 1.067-.49 1.107-.514 1.146-.539 1.185-.617 1.304-.7 1.42-.789 1.531-.802 1.548-.814 1.566-.828 1.583-.933 1.711-1.045 1.833-1.162 1.95-1.168 1.956-1.173 1.963-1.179 1.969-1.272 2.063-1.373 2.149-1.473 2.236-1.917 2.62-2.43 2.927-3.002 3.117-3.002 3.117-3.082 3.137-3.198 3.162H-3.199C-3.507 3.254-3.825 3.314-4.147 3.34-4.447 3.365-4.75 3.362-5.052 3.324-5.314 3.311-5.578 3.283-5.829 3.221-10.106 2.08-14.382 .936-18.658-.207-21.211-.889-23.772-1.545-26.316-2.258-28.083-2.754-29.254-4.095-29.658-5.647-29.706-5.829-29.745-6.013-29.771-6.2-29.772-6.21-29.776-6.221-29.778-6.232-29.779-6.242-29.78-6.252-29.781-6.262-29.798-6.399-29.806-6.538-29.812-6.676-29.812-6.706-29.817-6.735-29.818-6.765-29.819-6.827-29.819-6.889-29.818-6.951-29.816-7.025-29.811-7.1-29.806-7.174-29.803-7.215-29.802-7.255-29.799-7.296-29.79-7.404-29.776-7.511-29.76-7.619-29.752-7.661-29.744-7.704-29.735-7.747-29.731-7.768-29.728-7.788-29.724-7.809-29.723-7.813-29.723-7.815-29.722-7.819-29.692-7.968-29.655-8.116-29.61-8.264-29.609-8.269-29.607-8.274-29.605-8.28-29.6-8.296-29.595-8.312-29.59-8.327V-8.328C-29.534-8.501-29.469-8.672-29.393-8.842-29.387-8.856-29.379-8.871-29.373-8.885-29.302-9.039-29.223-9.191-29.135-9.341-29.102-9.397-29.062-9.451-29.026-9.506-28.955-9.617-28.885-9.727-28.803-9.834-28.675-10.001-28.537-10.164-28.382-10.32-28.125-10.582-27.862-10.839-27.602-11.099-27.167-11.534-26.728-11.974-26.261-12.441L-26.161-12.542-26.141-12.561C-27.008-13.423-28.066-14.48-28.929-15.342-29.231-15.644-29.367-16.004-29.265-16.426-29.054-17.292-28.046-17.584-27.397-16.975-27.39-16.968-27.381-16.964-27.374-16.958-26.743-16.338-26.121-15.71-25.498-15.084-25.35-14.935-24.761-14.349-24.548-14.136L-23.464-15.22C-23.204-15.487-22.947-15.751-22.695-16.008-20.322-13.628-17.973-11.273-15.623-8.917-15.634-8.91-15.666-8.891-15.697-8.874-15.86-8.782-16.009-8.683-16.148-8.578-16.153-8.575-16.157-8.571-16.161-8.567-17.021-7.916-17.424-7.014-17.34-5.853-17.215-4.146-15.482-2.794-13.81-3.179-12.794-3.412-11.784-3.671-10.777-3.946-10.091-4.131-9.406-4.323-8.728-4.532-8.597-4.572-8.474-4.621-8.354-4.676-8.35-4.678-8.346-4.681-8.342-4.683-6.926-5.349-6.321-7.034-6.866-8.463V-8.464C-6.915-8.593-6.973-8.72-7.041-8.843-7.047-8.855-7.052-8.866-7.058-8.876-7.13-9.004-7.21-9.13-7.304-9.251-7.502-9.504-7.739-9.729-7.967-9.958-9.109-11.098-10.252-12.238-11.394-13.378-13.592-15.574-15.79-17.77-17.989-19.964-18.098-20.073-18.222-20.174-18.375-20.31L-17.314-21.409C-18.186-22.286-19.055-23.163-19.927-24.036-20.472-24.582-21.017-25.126-21.563-25.67-22.335-26.439-23.109-27.209-23.879-27.981-24.178-28.283-24.257-28.661-24.143-29.063-23.967-29.687-23.348-29.985-22.786-29.834H-22.763C-22.721-29.818-22.685-29.795-22.646-29.777-22.513-29.721-22.383-29.647-22.269-29.537-22.243-29.51-22.217-29.483-22.191-29.459-22.108-29.383-22.027-29.305-21.946-29.224-21.56-28.838-21.173-28.453-20.787-28.065-20.623-27.903-20.459-27.74-20.296-27.577-18.812-26.094-17.329-24.613-15.844-23.131-15.836-23.124-15.827-23.115-15.818-23.106L-15.815-23.104C-15.784-23.075-15.748-23.042-15.704-23.002-15.703-23.001-15.703-23.001-15.702-23.001-15.692-22.992-15.685-22.985-15.674-22.976-15.267-23.391-14.87-23.803-14.465-24.208-14.013-24.66-13.583-25.141-13.091-25.544-10.387-27.761-6.378-26.51-5.431-23.144-5.093-21.945-4.769-20.742-4.448-19.538V-19.537C-4.37-19.243-4.292-18.95-4.214-18.657-4.067-18.108-3.921-17.561-3.776-17.012-3.601-16.354-3.426-15.697-3.25-15.04-2.145-10.917-1.039-6.796 .065-2.674 .117-2.469 .143-2.255 .16-2.041 .268-1.351 .205-.654 0 0" fill="#ffffff"/>
</g>
</g>
</svg>
