<svg width="1500" height="1500" viewBox="0 0 1500 1500" fill="none" xmlns="http://www.w3.org/2000/svg">
<path fill-rule="evenodd" clip-rule="evenodd" d="M903.306 332.611L845.09 294.706L859.139 171.469L921.689 134.821L1130.35 286.215L1095.86 588.794L1025.93 632.757L882.333 516.579L903.306 332.611ZM523.82 369.662L458.005 391.895L369.947 304.542L379.911 232.735L628.005 162.662L844.211 377.136L835.42 459.268L655.273 500.062L523.82 369.662ZM285.359 743.813L309.416 678.642L493.456 658.312L574.912 492.536L516.542 434.091L213.843 467.528L112.472 704.562L162.074 757.431L285.359 743.813ZM417.165 1039.73L450.429 1100.72L379.594 1202.54L307.145 1205.13L195.285 972.859L369.203 722.866L451.619 717.343L522.907 887.739L417.165 1039.73ZM837.709 1193.11L768.828 1184.1L708.213 1009.14L528.505 966.452L484.451 1036.32L584.147 1324.08L837.753 1370.4L878.314 1310.31L837.709 1193.11ZM1157.44 612.802L1163.26 543.364L1269.39 475.902L1336.76 501.343L1338.06 759.062L1080.68 922.668L1002.53 895.915L1002.63 711.208L1157.44 612.802ZM1156.08 951.242L1098.14 989.951L924.709 930.175L780.177 1045.19L807.943 1122.98L1096.27 1222.36L1297.04 1060.77L1274.97 992.221L1156.08 951.242Z" fill="white"/>
</svg>
